<svg xmlns="http://www.w3.org/2000/svg" viewBox="0 0 32 32">
  <defs>
    <linearGradient id="g" x1="0" y1="0" x2="1" y2="1">
      <stop offset="0%" stop-color="#14b8a6"/>
      <stop offset="100%" stop-color="#3b82f6"/>
    </linearGradient>
    <clipPath id="c">
      <circle cx="16" cy="16" r="16"/>
    </clipPath>
  </defs>
  <!-- Fundo redondo com gradiente -->
  <circle cx="16" cy="16" r="16" fill="url(#g)"/>
  <!-- Folha (adaptada do brand SVG, escala 24→28, centrada) -->
  <g clip-path="url(#c)" transform="translate(4,2) scale(1.0)">
    <path d="M12 2C6 2 3 7 3 12c0 3.5 1.5 6.5 4 8.5C8.5 22 11 22 12 22s3.5 0 5-1.5c2.5-2 4-5 4-8.5C21 7 18 2 12 2z"
          fill="white" opacity="0.35"/>
    <path d="M12 2c0 0-5 8-5 13a5 5 0 0 0 10 0C17 10 12 2 12 2z"
          fill="white"/>
  </g>
</svg>
